<svg width="579" height="579" viewBox="0 0 579 579" fill="none" xmlns="http://www.w3.org/2000/svg">
<path d="M579 0H0V579H579V0Z" fill="#EAECEF"/>
<path d="M457.121 385.788H97.9668C95.0718 385.788 92.7558 383.472 92.7558 380.577C92.7558 377.682 95.0718 375.366 97.9668 375.366H457.121C460.016 375.366 462.332 377.682 462.332 380.577C462.332 383.472 460.016 385.788 457.121 385.788Z" fill="#C9C9C9"/>
<path d="M165.536 331.941C159.978 331.941 155.519 327.425 155.519 321.924C155.519 316.424 160.036 311.907 165.536 311.907H222.278V331.999H165.536V331.941Z" fill="#CECECE"/>
<path d="M225.578 335.414H165.536C158.067 335.414 152.045 329.335 152.045 321.923C152.045 314.454 158.125 308.433 165.536 308.433H225.578V335.414V335.414Z" fill="white"/>
<path d="M161.831 318.797H222.278" stroke="#1F3969" stroke-width="4" stroke-miterlimit="10" stroke-linecap="round" stroke-linejoin="round"/>
<path d="M161.831 324.935H222.278" stroke="#1F3969" stroke-width="4" stroke-miterlimit="10" stroke-linecap="round" stroke-linejoin="round"/>
<path d="M165.536 331.941C159.978 331.941 155.519 327.425 155.519 321.924C155.519 316.424 160.036 311.907 165.536 311.907H222.278V331.999H165.536V331.941Z" stroke="#1F3969" stroke-width="4" stroke-miterlimit="10" stroke-linecap="round" stroke-linejoin="round"/>
<path d="M165.536 331.94C159.978 331.94 155.519 327.424 155.519 321.923C155.519 316.423 160.036 311.907 165.536 311.907H223.262L225.578 308.433H165.536C158.067 308.433 152.045 314.512 152.045 321.923C152.045 329.393 158.125 335.414 165.536 335.414H225.578L223.262 331.94H165.536Z" fill="#FF3E3E"/>
<path d="M165.536 331.94C159.978 331.94 155.519 327.424 155.519 321.923C155.519 316.423 160.036 311.907 165.536 311.907H223.262L225.578 308.433H165.536C158.067 308.433 152.045 314.512 152.045 321.923C152.045 329.393 158.125 335.414 165.536 335.414H225.578L223.262 331.94H165.536Z" stroke="#1F3969" stroke-width="4" stroke-miterlimit="10" stroke-linecap="round" stroke-linejoin="round"/>
<path opacity="0.28" d="M212.667 308.375H202.013V335.415H212.667V308.375Z" fill="#1F3969" stroke="#1F3969" stroke-width="4" stroke-miterlimit="10" stroke-linecap="round" stroke-linejoin="round"/>
<path d="M219.383 357.706H109.431C107.289 357.706 105.494 355.969 105.494 353.769V339.294C105.494 337.152 107.231 335.357 109.431 335.357H219.383C221.525 335.357 223.32 337.094 223.32 339.294V353.769C223.32 355.969 221.583 357.706 219.383 357.706Z" fill="#50B56F"/>
<path d="M139.134 347.284H137.628V350.468H136.644V342.768H139.134C140.929 342.768 141.797 343.752 141.797 345.026C141.797 346.184 141.044 347.284 139.134 347.284ZM139.134 346.415C140.292 346.415 140.755 345.894 140.755 345.026C140.755 344.157 140.292 343.578 139.134 343.578H137.628V346.415H139.134Z" fill="white"/>
<path d="M144.576 342.768H145.676L147.587 346.647L149.498 342.768H150.598L148.108 347.574V350.469H147.124V347.574L144.576 342.768Z" fill="white"/>
<path d="M153.377 342.768H158.588V343.579H156.504V350.469H155.519V343.579H153.435V342.768H153.377Z" fill="white"/>
<path d="M166.984 346.995H163.046V350.469H162.062V342.768H163.046V346.126H166.984V342.768H167.968V350.469H166.984V346.995Z" fill="white"/>
<path d="M175.379 350.527C173.237 350.527 171.5 348.905 171.5 346.589C171.5 344.273 173.179 342.652 175.379 342.652C177.579 342.652 179.258 344.273 179.258 346.589C179.201 348.905 177.521 350.527 175.379 350.527ZM175.379 349.658C177 349.658 178.216 348.5 178.216 346.589C178.216 344.679 177 343.521 175.379 343.521C173.758 343.521 172.542 344.679 172.542 346.589C172.542 348.5 173.758 349.658 175.379 349.658Z" fill="white"/>
<path d="M188.812 342.768V350.469H187.828L183.775 344.331V350.469H182.79V342.768H183.775L187.828 348.848V342.768H188.812Z" fill="white"/>
<path d="M219.383 357.706H109.431C107.289 357.706 105.494 355.969 105.494 353.769V339.294C105.494 337.152 107.231 335.357 109.431 335.357H219.383C221.525 335.357 223.32 337.094 223.32 339.294V353.769C223.32 355.969 221.583 357.706 219.383 357.706Z" stroke="#1F3969" stroke-width="4" stroke-miterlimit="10" stroke-linecap="round" stroke-linejoin="round"/>
<path opacity="0.28" d="M219.383 335.415H202.013V344.1C202.013 349.542 206.413 354.001 211.914 354.001H223.32C223.32 353.943 223.32 353.885 223.32 353.827V339.352C223.32 337.152 221.583 335.415 219.383 335.415Z" fill="#1F3969" stroke="#1F3969" stroke-width="4" stroke-miterlimit="10" stroke-linecap="round" stroke-linejoin="round"/>
<path d="M250.36 362.222H122.98C123.732 364.075 124.138 366.391 124.138 368.823C124.138 371.255 123.732 373.513 122.98 375.424H250.302C249.549 373.571 249.144 371.255 249.144 368.823C249.202 366.333 249.607 364.075 250.36 362.222Z" fill="#CECECE"/>
<path d="M253.834 358.691H119.564V362.165H253.834V358.691Z" fill="#5F5AFF"/>
<path d="M253.834 358.691H119.564V362.165H253.834V358.691Z" stroke="#1F3969" stroke-width="4" stroke-miterlimit="10" stroke-linecap="round" stroke-linejoin="round"/>
<path d="M253.834 375.366H119.564V378.84H253.834V375.366Z" fill="#F6F9FD"/>
<path d="M253.834 375.366H119.564V378.84H253.834V375.366Z" fill="#5F5AFF"/>
<path d="M253.834 375.366H119.564V378.84H253.834V375.366Z" stroke="#1F3969" stroke-width="4" stroke-miterlimit="10" stroke-linecap="round" stroke-linejoin="round"/>
<path d="M320.534 366.507L318.797 346.995H290.195L288.458 366.507C288.053 371.023 285.331 375.366 281.047 378.84V378.898H327.946V378.84C323.661 375.366 320.94 371.023 320.534 366.507Z" fill="#BFCFE2"/>
<path opacity="0.28" d="M290.195 346.995L289.153 358.691H319.84L318.797 346.995H290.195Z" fill="#1F3969" stroke="#1F3969" stroke-width="4" stroke-miterlimit="10" stroke-linecap="round" stroke-linejoin="round"/>
<path d="M320.534 366.507L318.797 346.995H290.195L288.458 366.507C288.053 371.023 285.331 375.366 281.047 378.84V378.898H327.946V378.84C323.661 375.366 320.94 371.023 320.534 366.507Z" stroke="#1F3969" stroke-width="4" stroke-miterlimit="10" stroke-linecap="round" stroke-linejoin="round"/>
<path d="M395.978 349.89H213.014C209.193 349.89 206.066 346.763 206.066 342.942V223.668C206.066 219.846 209.193 216.72 213.014 216.72H395.978C399.8 216.72 402.926 219.846 402.926 223.668V342.942C402.926 346.821 399.8 349.89 395.978 349.89Z" fill="white"/>
<path d="M395.978 349.89H213.014C209.193 349.89 206.066 346.763 206.066 342.942V223.668C206.066 219.846 209.193 216.72 213.014 216.72H395.978C399.8 216.72 402.926 219.846 402.926 223.668V342.942C402.926 346.821 399.8 349.89 395.978 349.89Z" fill="#BFCFE2"/>
<path d="M395.978 349.89H213.014C209.193 349.89 206.066 346.763 206.066 342.942V223.668C206.066 219.846 209.193 216.72 213.014 216.72H395.978C399.8 216.72 402.926 219.846 402.926 223.668V342.942C402.926 346.821 399.8 349.89 395.978 349.89Z" stroke="#1F3969" stroke-width="4" stroke-miterlimit="10" stroke-linecap="round" stroke-linejoin="round"/>
<path d="M393.115 327.672V226.579L215.941 226.579L215.941 327.672H393.115Z" fill="#F6F9FD"/>
<path opacity="0.28" d="M222.278 216.72V296.969C222.278 299.517 224.362 301.601 226.91 301.601H336.399C338.947 301.601 341.031 299.517 341.031 296.969V216.72H222.278Z" fill="#1F3969" stroke="#1F3969" stroke-width="4" stroke-miterlimit="10" stroke-linecap="round" stroke-linejoin="round"/>
<path d="M393.115 327.672V226.579L215.941 226.579L215.941 327.672H393.115Z" stroke="#1F3969" stroke-width="4" stroke-miterlimit="10" stroke-linecap="round" stroke-linejoin="round"/>
<path d="M296.737 338.715H312.313" stroke="#1F3969" stroke-width="4" stroke-miterlimit="10" stroke-linecap="round" stroke-linejoin="round"/>
<path d="M341.61 295.232H232.121C229.574 295.232 227.489 293.148 227.489 290.6V204.792C227.489 202.245 229.574 200.16 232.121 200.16H341.61C344.158 200.16 346.242 202.245 346.242 204.792V290.658C346.242 293.206 344.158 295.232 341.61 295.232Z" fill="#2D425E"/>
<path d="M346.242 211.393H227.489V204.734C227.489 202.187 229.574 200.102 232.121 200.102H341.61C344.158 200.102 346.242 202.187 346.242 204.734V211.393Z" stroke="#1F3969" stroke-width="4" stroke-miterlimit="10" stroke-linecap="round" stroke-linejoin="round"/>
<path d="M346.242 213.593H227.489V204.734C227.489 202.187 229.574 200.102 232.121 200.102H341.61C344.158 200.102 346.242 202.187 346.242 204.734V213.593Z" fill="#D0DDF0"/>
<path d="M346.242 213.593H227.489V204.734C227.489 202.187 229.574 200.102 232.121 200.102H341.61C344.158 200.102 346.242 202.187 346.242 204.734V213.593Z" stroke="#1F3969" stroke-width="4" stroke-miterlimit="10" stroke-linecap="round" stroke-linejoin="round"/>
<path d="M346.242 213.593H227.489V204.734C227.489 202.187 229.574 200.102 232.121 200.102H341.61C344.158 200.102 346.242 202.187 346.242 204.734V213.593Z" stroke="#1F3969" stroke-width="4" stroke-miterlimit="10" stroke-linecap="round" stroke-linejoin="round"/>
<path d="M341.61 295.232H232.121C229.574 295.232 227.489 293.148 227.489 290.6V204.792C227.489 202.245 229.574 200.16 232.121 200.16H341.61C344.158 200.16 346.242 202.245 346.242 204.792V290.658C346.242 293.206 344.158 295.232 341.61 295.232Z" stroke="#1F3969" stroke-width="4" stroke-miterlimit="10" stroke-linecap="round" stroke-linejoin="round"/>
<path opacity="0.28" d="M398.757 315.729H331.593C329.046 315.729 326.961 313.644 326.961 311.097V239.938C326.961 237.39 329.046 235.306 331.593 235.306H398.757C401.305 235.306 403.389 237.39 403.389 239.938V311.097C403.389 313.702 401.305 315.729 398.757 315.729Z" fill="#1F3969" stroke="#1F3969" stroke-width="4" stroke-miterlimit="10" stroke-linecap="round" stroke-linejoin="round"/>
<path d="M403.389 311.676H336.225C333.678 311.676 331.593 309.591 331.593 307.044V235.885C331.593 233.337 333.678 231.253 336.225 231.253H403.389C405.937 231.253 408.021 233.337 408.021 235.885V307.044C408.021 309.649 405.937 311.676 403.389 311.676Z" fill="#2AA1FF"/>
<path d="M403.389 311.676H336.225C333.678 311.676 331.593 309.591 331.593 307.044V235.885C331.593 233.337 333.678 231.253 336.225 231.253H403.389C405.937 231.253 408.021 233.337 408.021 235.885V307.044C408.021 309.649 405.937 311.676 403.389 311.676Z" stroke="#1F3969" stroke-width="4" stroke-miterlimit="10" stroke-linecap="round" stroke-linejoin="round"/>
<path opacity="0.34" d="M393.373 253.313H346.126C344.447 253.313 343.115 251.981 343.115 250.302V245.786C343.115 244.106 344.447 242.775 346.126 242.775H393.373C395.052 242.775 396.383 244.106 396.383 245.786V250.302C396.383 251.981 395.052 253.313 393.373 253.313Z" stroke="white" stroke-width="2" stroke-miterlimit="10" stroke-linecap="round" stroke-linejoin="round"/>
<g opacity="0.34">
<path opacity="0.34" d="M372.644 270.277H346.242C344.563 270.277 343.231 268.946 343.231 267.266V262.75C343.231 261.071 344.563 259.739 346.242 259.739H372.644C374.324 259.739 375.655 261.071 375.655 262.75V267.266C375.597 268.946 374.266 270.277 372.644 270.277Z" stroke="white" stroke-width="2" stroke-miterlimit="10" stroke-linecap="round" stroke-linejoin="round"/>
<path opacity="0.34" d="M393.431 270.277H383.182C381.503 270.277 380.171 268.946 380.171 267.266V262.75C380.171 261.071 381.503 259.739 383.182 259.739H393.431C395.11 259.739 396.441 261.071 396.441 262.75V267.266C396.441 268.946 395.11 270.277 393.431 270.277Z" stroke="white" stroke-width="2" stroke-miterlimit="10" stroke-linecap="round" stroke-linejoin="round"/>
</g>
<path d="M343.173 287.879H396.383" stroke="white" stroke-width="2" stroke-miterlimit="10" stroke-linecap="round" stroke-linejoin="round"/>
<path d="M343.173 294.132H396.383" stroke="white" stroke-width="2" stroke-miterlimit="10" stroke-linecap="round" stroke-linejoin="round"/>
<path d="M343.173 300.385H375.597" stroke="white" stroke-width="2" stroke-miterlimit="10" stroke-linecap="round" stroke-linejoin="round"/>
<path d="M239.127 209.193C240.406 209.193 241.443 208.156 241.443 206.877C241.443 205.598 240.406 204.561 239.127 204.561C237.848 204.561 236.811 205.598 236.811 206.877C236.811 208.156 237.848 209.193 239.127 209.193Z" fill="#1F3969"/>
<path d="M247.175 209.193C248.454 209.193 249.491 208.156 249.491 206.877C249.491 205.598 248.454 204.561 247.175 204.561C245.896 204.561 244.859 205.598 244.859 206.877C244.859 208.156 245.896 209.193 247.175 209.193Z" fill="#1F3969"/>
<path d="M255.223 209.193C256.502 209.193 257.539 208.156 257.539 206.877C257.539 205.598 256.502 204.561 255.223 204.561C253.944 204.561 252.907 205.598 252.907 206.877C252.907 208.156 253.944 209.193 255.223 209.193Z" fill="#1F3969"/>
<path d="M295.695 224.305H303.222" stroke="white" stroke-width="4" stroke-miterlimit="10" stroke-linecap="round" stroke-linejoin="round"/>
<path d="M257.539 224.305H290.137" stroke="#7BFFA0" stroke-width="4" stroke-miterlimit="10" stroke-linecap="round" stroke-linejoin="round"/>
<path d="M241.443 224.305H252.907" stroke="#9169FF" stroke-width="4" stroke-miterlimit="10" stroke-linecap="round" stroke-linejoin="round"/>
<path d="M256.381 281.336H281.278" stroke="#9169FF" stroke-width="4" stroke-miterlimit="10" stroke-linecap="round" stroke-linejoin="round"/>
<path d="M241.443 281.336H249.491" stroke="#7BFFA0" stroke-width="4" stroke-miterlimit="10" stroke-linecap="round" stroke-linejoin="round"/>
<path d="M290.137 231.426H294.827" stroke="white" stroke-width="4" stroke-miterlimit="10" stroke-linecap="round" stroke-linejoin="round"/>
<path d="M268.83 231.426H284.578" stroke="#9169FF" stroke-width="4" stroke-miterlimit="10" stroke-linecap="round" stroke-linejoin="round"/>
<path d="M247.175 231.426H263.213" stroke="#FFC47D" stroke-width="4" stroke-miterlimit="10" stroke-linecap="round" stroke-linejoin="round"/>
<path d="M272.014 238.548H285.852" stroke="white" stroke-width="4" stroke-miterlimit="10" stroke-linecap="round" stroke-linejoin="round"/>
<path d="M254.644 238.548H267.672" stroke="#FF5757" stroke-width="4" stroke-miterlimit="10" stroke-linecap="round" stroke-linejoin="round"/>
<path d="M273.867 245.67H276.704" stroke="white" stroke-width="4" stroke-miterlimit="10" stroke-linecap="round" stroke-linejoin="round"/>
<path d="M262.403 245.67H268.83" stroke="#9169FF" stroke-width="4" stroke-miterlimit="10" stroke-linecap="round" stroke-linejoin="round"/>
<path d="M247.175 245.67H257.539" stroke="#7BFFA0" stroke-width="4" stroke-miterlimit="10" stroke-linecap="round" stroke-linejoin="round"/>
<path d="M269.409 252.849H287.879" stroke="#FFC47D" stroke-width="4" stroke-miterlimit="10" stroke-linecap="round" stroke-linejoin="round"/>
<path d="M247.175 252.849H263.735" stroke="#FF5757" stroke-width="4" stroke-miterlimit="10" stroke-linecap="round" stroke-linejoin="round"/>
<path d="M290.774 259.971H300.79" stroke="#9169FF" stroke-width="4" stroke-miterlimit="10" stroke-linecap="round" stroke-linejoin="round"/>
<path d="M269.409 259.971H285.447" stroke="#FF5757" stroke-width="4" stroke-miterlimit="10" stroke-linecap="round" stroke-linejoin="round"/>
<path d="M254.644 259.971H263.735" stroke="#7BFFA0" stroke-width="4" stroke-miterlimit="10" stroke-linecap="round" stroke-linejoin="round"/>
<path d="M276.704 267.093H285.447" stroke="white" stroke-width="4" stroke-miterlimit="10" stroke-linecap="round" stroke-linejoin="round"/>
<path d="M254.644 267.093H270.682" stroke="#9169FF" stroke-width="4" stroke-miterlimit="10" stroke-linecap="round" stroke-linejoin="round"/>
<path d="M299.459 274.214H309.476" stroke="white" stroke-width="4" stroke-miterlimit="10" stroke-linecap="round" stroke-linejoin="round"/>
<path d="M268.83 274.214H294.016" stroke="#FFC47D" stroke-width="4" stroke-miterlimit="10" stroke-linecap="round" stroke-linejoin="round"/>
<path d="M247.175 274.214H263.213" stroke="white" stroke-width="4" stroke-miterlimit="10" stroke-linecap="round" stroke-linejoin="round"/>
<path d="M124.427 366.218H249.202" stroke="#1F3969" stroke-width="4" stroke-miterlimit="10" stroke-linecap="round" stroke-linejoin="round"/>
<path d="M124.427 370.85H249.202" stroke="#1F3969" stroke-width="4" stroke-miterlimit="10" stroke-linecap="round" stroke-linejoin="round"/>
<path d="M250.36 362.222H122.98C123.732 364.075 124.138 366.391 124.138 368.823C124.138 371.255 123.732 373.513 122.98 375.424H250.302C249.549 373.571 249.144 371.255 249.144 368.823C249.202 366.333 249.607 364.075 250.36 362.222Z" stroke="#1F3969" stroke-width="4" stroke-miterlimit="10" stroke-linecap="round" stroke-linejoin="round"/>
<path d="M421.714 315.017L416.079 315.679L420.98 357.428L426.616 356.767L421.714 315.017Z" fill="#FFA364"/>
<path d="M421.722 315.062L416.086 315.723L416.586 319.979L422.221 319.317L421.722 315.062Z" fill="#2AA1FF"/>
<path d="M421.722 315.062L416.086 315.723L416.586 319.979L422.221 319.317L421.722 315.062Z" stroke="#1F3969" stroke-width="4" stroke-miterlimit="10" stroke-linecap="round" stroke-linejoin="round"/>
<path d="M421.714 315.017L416.079 315.679L420.98 357.428L426.616 356.767L421.714 315.017Z" stroke="#1F3969" stroke-width="4" stroke-miterlimit="10" stroke-linecap="round" stroke-linejoin="round"/>
<path d="M437.167 323.569L431.527 322.955L426.983 364.743L432.623 365.356L437.167 323.569Z" fill="#FF5252"/>
<path d="M437.167 323.569L431.527 322.955L426.983 364.743L432.623 365.356L437.167 323.569Z" stroke="#1F3969" stroke-width="4" stroke-miterlimit="10" stroke-linecap="round" stroke-linejoin="round"/>
<path d="M437.209 323.579L431.569 322.965L431.105 327.225L436.746 327.838L437.209 323.579Z" fill="#2D425E"/>
<path d="M437.209 323.579L431.569 322.965L431.105 327.225L436.746 327.838L437.209 323.579Z" stroke="#1F3969" stroke-width="4" stroke-miterlimit="10" stroke-linecap="round" stroke-linejoin="round"/>
<path d="M440.677 379.013H417.922L414.217 344.158H444.382L440.677 379.013Z" fill="#6567C3"/>
<path d="M414.217 344.158L414.274 344.795H437.261L433.613 379.013H440.677L444.382 344.158H414.217Z" fill="#6567C3"/>
<path d="M440.677 379.013H417.922L414.217 344.158H444.382L440.677 379.013Z" stroke="#1F3969" stroke-width="4" stroke-miterlimit="10" stroke-linecap="round" stroke-linejoin="round"/>
</svg>
