<svg width="579" height="579" viewBox="0 0 579 579" fill="none" xmlns="http://www.w3.org/2000/svg">
<path d="M579 0H0V579H579V0Z" fill="#EAECEF"/>
<path d="M496.385 370.447H83.5638C81.0284 370.447 79 368.447 79 365.947C79 363.447 81.0284 361.447 83.5638 361.447H496.436C498.972 361.447 501 363.447 501 365.947C500.949 368.447 498.921 370.447 496.385 370.447Z" fill="#444E59"/>
<path d="M313.046 360.852H241.64V365.112H313.046V360.852Z" fill="#444E59"/>
<path d="M362.644 333.01H194.172C190.825 333.01 188.086 330.272 188.086 326.925V214.086C188.086 210.739 190.825 208 194.172 208H362.644C365.991 208 368.73 210.739 368.73 214.086V326.874C368.73 330.272 366.042 333.01 362.644 333.01Z" fill="#BBBFC2"/>
<path d="M358.023 311.599V219.451L199.49 219.451L199.49 311.599H358.023Z" fill="#28A8E0"/>
<path opacity="0.4" d="M363.05 333.01H336.628V284.933C336.628 281.079 339.721 277.986 343.576 277.986H363.05V333.01Z" fill="#848484"/>
<path opacity="0.4" d="M200.917 286.556H188.086V324.44C188.086 329.156 192.143 333.01 196.91 333.01H211.668V297.51C211.617 291.577 206.8 286.556 200.917 286.556Z" fill="#848484"/>
<path d="M363.151 333.01H194.375C191.028 333.01 188.289 330.272 188.289 326.925V214.086C188.289 210.739 191.028 208 194.375 208H363.151C366.498 208 369.237 210.739 369.237 214.086V326.874C369.237 330.272 366.498 333.01 363.151 333.01Z" stroke="#444E59" stroke-width="4" stroke-miterlimit="10" stroke-linecap="round" stroke-linejoin="round"/>
<path d="M357.819 311.597V219.45L199.743 219.45L199.743 311.597H357.819Z" stroke="#444E59" stroke-width="4" stroke-miterlimit="10" stroke-linecap="round" stroke-linejoin="round"/>
<path opacity="0.32" d="M327.094 307.146H239.967C237.989 307.146 236.417 305.523 236.417 303.596V241.421C236.417 239.443 238.04 237.871 239.967 237.871H327.094C329.071 237.871 330.644 239.493 330.644 241.421V303.545C330.644 305.523 329.071 307.146 327.094 307.146Z" fill="#848484"/>
<path d="M323.037 303.698H235.91C233.932 303.698 232.36 302.075 232.36 300.148V238.023C232.36 236.045 233.982 234.473 235.91 234.473H323.037C325.014 234.473 326.587 236.096 326.587 238.023V300.148C326.637 302.125 325.014 303.698 323.037 303.698Z" fill="#AFB1B2"/>
<path d="M323.037 303.698H235.91C233.932 303.698 232.36 302.075 232.36 300.148V238.023C232.36 236.045 233.982 234.473 235.91 234.473H323.037C325.014 234.473 326.587 236.096 326.587 238.023V300.148C326.637 302.125 325.014 303.698 323.037 303.698Z" stroke="#444E59" stroke-width="4" stroke-miterlimit="10" stroke-linecap="round" stroke-linejoin="round"/>
<path d="M300.012 360.852H257.514L262.788 333.01H294.738L300.012 360.852Z" fill="#AEAEAF"/>
<path opacity="0.32" d="M296.158 340.871L294.738 333.01H262.788L261.368 340.871H296.158Z" fill="#848484"/>
<path d="M300.012 360.852H257.514L262.788 333.01H294.738L300.012 360.852Z" stroke="#444E59" stroke-width="4" stroke-miterlimit="10" stroke-linecap="round" stroke-linejoin="round"/>
<path d="M313.046 360.852H241.64V365.112H313.046V360.852Z" stroke="#444E59" stroke-width="4" stroke-miterlimit="10" stroke-linecap="round" stroke-linejoin="round"/>
<path d="M278.509 323.375C280.246 323.375 281.654 321.967 281.654 320.23C281.654 318.494 280.246 317.086 278.509 317.086C276.773 317.086 275.365 318.494 275.365 320.23C275.365 321.967 276.773 323.375 278.509 323.375Z" fill="#444E59"/>
<path d="M315.886 297.308H228.759C226.781 297.308 225.209 295.685 225.209 293.758V231.582C225.209 229.604 226.832 228.032 228.759 228.032H315.886C317.864 228.032 319.436 229.655 319.436 231.582V293.707C319.486 295.685 317.864 297.308 315.886 297.308Z" fill="white"/>
<path d="M315.886 297.308H228.759C226.781 297.308 225.209 295.685 225.209 293.758V231.582C225.209 229.604 226.832 228.032 228.759 228.032H315.886C317.864 228.032 319.436 229.655 319.436 231.582V293.707C319.486 295.685 317.864 297.308 315.886 297.308Z" stroke="#444E59" stroke-width="4" stroke-miterlimit="10" stroke-linecap="round" stroke-linejoin="round"/>
<path d="M319.486 238.733H225.209V231.734C225.209 229.706 226.882 227.981 228.962 227.981H315.987C317.914 227.981 319.486 229.554 319.486 231.481V238.733Z" fill="#BBBFC2"/>
<path d="M319.486 238.733H225.209V231.734C225.209 229.706 226.882 227.981 228.962 227.981H315.987C317.914 227.981 319.486 229.554 319.486 231.481V238.733Z" stroke="#444E59" stroke-width="4" stroke-miterlimit="10" stroke-linecap="round" stroke-linejoin="round"/>
<path d="M234.287 235.081C235.211 235.081 235.96 234.332 235.96 233.408C235.96 232.483 235.211 231.734 234.287 231.734C233.362 231.734 232.613 232.483 232.613 233.408C232.613 234.332 233.362 235.081 234.287 235.081Z" fill="#444E59"/>
<path d="M239.815 235.081C240.739 235.081 241.488 234.332 241.488 233.408C241.488 232.483 240.739 231.734 239.815 231.734C238.89 231.734 238.141 232.483 238.141 233.408C238.141 234.332 238.89 235.081 239.815 235.081Z" fill="#444E59"/>
<path d="M245.292 235.081C246.216 235.081 246.965 234.332 246.965 233.408C246.965 232.483 246.216 231.734 245.292 231.734C244.367 231.734 243.618 232.483 243.618 233.408C243.618 234.332 244.367 235.081 245.292 235.081Z" fill="#444E59"/>
<path d="M310.612 257.294H233.374C232.816 257.294 232.36 256.838 232.36 256.28V245.478C232.36 244.92 232.816 244.463 233.374 244.463H310.612C311.169 244.463 311.626 244.92 311.626 245.478V256.28C311.626 256.838 311.169 257.294 310.612 257.294Z" fill="#6567C3"/>
<path opacity="0.2" d="M255.587 270.835H233.323C232.765 270.835 232.309 270.378 232.309 269.821V263.988C232.309 263.431 232.765 262.974 233.323 262.974H255.587C256.144 262.974 256.601 263.431 256.601 263.988V269.821C256.601 270.378 256.195 270.835 255.587 270.835Z" fill="#444E59"/>
<path opacity="0.2" d="M235.91 276.566H253.761" stroke="#444E59" stroke-width="4" stroke-miterlimit="10" stroke-linecap="round" stroke-linejoin="round"/>
<path opacity="0.2" d="M235.91 282.296H253.761" stroke="#444E59" stroke-width="4" stroke-miterlimit="10" stroke-linecap="round" stroke-linejoin="round"/>
<path opacity="0.2" d="M283.479 270.835H261.216C260.658 270.835 260.202 270.378 260.202 269.821V263.988C260.202 263.431 260.658 262.974 261.216 262.974H283.479C284.037 262.974 284.494 263.431 284.494 263.988V269.821C284.494 270.378 284.037 270.835 283.479 270.835Z" fill="#444E59"/>
<path opacity="0.2" d="M263.752 276.566H280.893" stroke="#444E59" stroke-width="4" stroke-miterlimit="10" stroke-linecap="round" stroke-linejoin="round"/>
<path opacity="0.2" d="M263.752 282.296H280.893" stroke="#444E59" stroke-width="4" stroke-miterlimit="10" stroke-linecap="round" stroke-linejoin="round"/>
<g opacity="0.2">
<path opacity="0.2" d="M311.321 283.006H289.058C288.5 283.006 288.044 282.55 288.044 281.992V264.039C288.044 263.481 288.5 263.025 289.058 263.025H311.321C311.879 263.025 312.336 263.481 312.336 264.039V281.992C312.336 282.55 311.879 283.006 311.321 283.006Z" fill="#444E59"/>
</g>
<g opacity="0.09">
<path opacity="0.09" d="M310.612 288.737H289.413C288.602 288.737 287.993 288.078 287.993 287.317C287.993 286.556 288.652 285.897 289.413 285.897H310.612C311.423 285.897 312.032 286.556 312.032 287.317C312.032 288.078 311.372 288.737 310.612 288.737Z" fill="#444E59"/>
</g>
<path d="M151.268 343.407H110.392C109.885 343.407 109.428 343.559 109.073 343.914L99.1842 352.535C98.2714 353.347 98.2714 354.767 99.1842 355.527L109.073 364.301C109.428 364.605 109.885 364.91 110.392 364.91H151.268C153.6 364.91 155.528 362.78 155.528 360.447V347.515C155.477 345.283 153.6 343.407 151.268 343.407ZM109.276 356.542C107.907 356.542 106.741 355.426 106.741 354.006C106.741 352.586 107.856 351.47 109.276 351.47C110.696 351.47 111.812 352.586 111.812 354.006C111.812 355.426 110.696 356.542 109.276 356.542Z" fill="white"/>
<path d="M131.692 343.407H119.774V364.96H131.692V343.407Z" fill="#F09F54"/>
<path d="M143.61 343.407H131.692V364.96H143.61V343.407Z" fill="#ED8B3B"/>
<path d="M150.203 364.96H143.61V343.407H150.405C153.195 343.407 155.528 345.689 155.528 348.529V359.686C155.477 362.577 153.093 364.96 150.203 364.96Z" fill="#FF6C37"/>
<path opacity="0.4" d="M152.383 344.472C152.181 344.421 151.978 344.421 151.775 344.421H110.899C110.392 344.421 109.936 344.573 109.581 344.928L99.6914 353.55C98.7785 354.361 98.7785 355.781 99.6914 356.542L105.878 361.968L112.573 363.642C112.877 363.743 113.232 363.743 113.587 363.743C114.246 363.743 114.855 363.591 115.463 363.287L151.876 344.725C152.028 344.675 152.231 344.573 152.383 344.472ZM109.783 357.556C108.414 357.556 107.248 356.44 107.248 355.02C107.248 353.6 108.363 352.485 109.783 352.485C111.203 352.485 112.319 353.6 112.319 355.02C112.319 356.44 111.203 357.556 109.783 357.556Z" fill="#848484"/>
<path d="M151.268 343.407H110.392C109.885 343.407 109.428 343.559 109.073 343.914L99.1842 352.535C98.2714 353.347 98.2714 354.767 99.1842 355.527L109.073 364.301C109.428 364.605 109.885 364.91 110.392 364.91H151.268C153.6 364.91 155.528 362.78 155.528 360.447V347.515C155.477 345.283 153.6 343.407 151.268 343.407ZM109.276 356.542C107.907 356.542 106.741 355.426 106.741 354.006C106.741 352.586 107.856 351.47 109.276 351.47C110.696 351.47 111.812 352.586 111.812 354.006C111.812 355.426 110.696 356.542 109.276 356.542Z" stroke="#444E59" stroke-width="4" stroke-miterlimit="10" stroke-linecap="round" stroke-linejoin="round"/>
<path d="M131.692 343.407H119.774V364.96H131.692V343.407Z" stroke="#444E59" stroke-width="4" stroke-miterlimit="10" stroke-linecap="round" stroke-linejoin="round"/>
<path d="M143.61 343.407H131.692V364.96H143.61V343.407Z" stroke="#444E59" stroke-width="4" stroke-miterlimit="10" stroke-linecap="round" stroke-linejoin="round"/>
<path d="M150.203 364.96H143.61V343.407H150.405C153.195 343.407 155.528 345.689 155.528 348.529V359.686C155.477 362.577 153.093 364.96 150.203 364.96Z" stroke="#444E59" stroke-width="4" stroke-miterlimit="10" stroke-linecap="round" stroke-linejoin="round"/>
<path d="M140.719 322.918L104.306 341.48C103.85 341.683 103.546 342.088 103.343 342.545L98.4742 354.716C98.0178 355.832 98.6771 357.1 99.8435 357.404L112.573 360.65C113.029 360.751 113.536 360.7 113.993 360.497L150.406 341.936C152.485 340.871 153.296 338.335 152.231 336.307L146.348 324.795C145.283 322.665 142.748 321.853 140.719 322.918Z" fill="white"/>
<path d="M133.86 326.392L123.244 331.809L132.925 350.783L143.541 345.366L133.86 326.392Z" fill="#8D91DB"/>
<path d="M140.719 322.918L104.306 341.48C103.85 341.683 103.546 342.088 103.343 342.545L98.4742 354.716C98.0178 355.832 98.6771 357.1 99.8435 357.404L112.573 360.65C113.029 360.751 113.536 360.7 113.993 360.497L150.406 341.936C152.485 340.871 153.296 338.335 152.231 336.307L146.348 324.795C145.283 322.665 142.748 321.853 140.719 322.918Z" stroke="#444E59" stroke-width="4" stroke-miterlimit="10" stroke-linecap="round" stroke-linejoin="round"/>
<path d="M108.161 354.412C109.785 354.412 111.102 353.095 111.102 351.47C111.102 349.846 109.785 348.529 108.161 348.529C106.536 348.529 105.219 349.846 105.219 351.47C105.219 353.095 106.536 354.412 108.161 354.412Z" fill="#444E59"/>
<path d="M123.221 331.836L112.605 337.253L122.286 356.227L132.902 350.81L123.221 331.836Z" fill="#BECCD5" stroke="#444E59" stroke-width="4" stroke-miterlimit="10" stroke-linecap="round" stroke-linejoin="round"/>
<path d="M123.221 331.836L112.605 337.253L122.286 356.227L132.902 350.81L123.221 331.836Z" stroke="#444E59" stroke-width="4" stroke-miterlimit="10" stroke-linecap="round" stroke-linejoin="round"/>
<path d="M133.86 326.392L123.244 331.809L132.925 350.783L143.541 345.366L133.86 326.392Z" stroke="#444E59" stroke-width="4" stroke-miterlimit="10" stroke-linecap="round" stroke-linejoin="round"/>
<path d="M149.594 342.291L143.508 345.385L133.822 326.418L139.908 323.324C142.393 322.056 145.436 323.02 146.754 325.555L151.826 335.495C153.093 337.98 152.079 341.023 149.594 342.291Z" fill="#6567C3"/>
<path d="M149.594 342.291L143.508 345.385L133.822 326.418L139.908 323.324C142.393 322.056 145.436 323.02 146.754 325.555L151.826 335.495C153.093 337.98 152.079 341.023 149.594 342.291Z" stroke="#444E59" stroke-width="4" stroke-miterlimit="10" stroke-linecap="round" stroke-linejoin="round"/>
<path d="M200.866 365.112H166.736C163.947 365.112 161.664 362.83 161.664 360.041V291.628C161.664 288.838 163.947 286.556 166.736 286.556H200.866C203.656 286.556 205.938 288.838 205.938 291.628V360.041C205.938 362.881 203.656 365.112 200.866 365.112Z" fill="white"/>
<path d="M206.648 310.138H161.664V291.526C161.664 288.788 163.896 286.556 166.634 286.556H201.374C204.264 286.556 206.597 288.94 206.597 291.78V310.138H206.648Z" fill="#6567C3"/>
<path d="M200.866 365.112H166.736C163.947 365.112 161.664 362.83 161.664 360.041V291.628C161.664 288.838 163.947 286.556 166.736 286.556H200.866C203.656 286.556 205.938 288.838 205.938 291.628V360.041C205.938 362.881 203.656 365.112 200.866 365.112Z" stroke="#444E59" stroke-width="4" stroke-miterlimit="10" stroke-linecap="round" stroke-linejoin="round"/>
<path d="M200.917 365.112H166.888C163.997 365.112 161.613 362.729 161.613 359.838V350.101H205.938V360.092C205.938 362.881 203.655 365.112 200.917 365.112Z" fill="#BBBFC2"/>
<path d="M201.018 365.112H166.888C163.997 365.112 161.613 362.729 161.613 359.838V350.101H205.938V360.193C205.938 362.932 203.706 365.112 201.018 365.112Z" stroke="#444E59" stroke-width="4" stroke-miterlimit="10" stroke-linecap="round" stroke-linejoin="round"/>
<path d="M184.13 359.838C185.531 359.838 186.666 358.703 186.666 357.302C186.666 355.902 185.531 354.767 184.13 354.767C182.73 354.767 181.595 355.902 181.595 357.302C181.595 358.703 182.73 359.838 184.13 359.838Z" fill="#444E59"/>
<path opacity="0.3" d="M171.655 317.999H196.657" stroke="#444E59" stroke-width="4" stroke-miterlimit="10" stroke-linecap="round" stroke-linejoin="round"/>
<path opacity="0.3" d="M176.625 325.86H192.346" stroke="#444E59" stroke-width="4" stroke-miterlimit="10" stroke-linecap="round" stroke-linejoin="round"/>
<path opacity="0.3" d="M171.655 333.01H196.657" stroke="#444E59" stroke-width="4" stroke-miterlimit="10" stroke-linecap="round" stroke-linejoin="round"/>
<path opacity="0.62" d="M184.13 305.828C187.267 305.828 189.81 303.285 189.81 300.148C189.81 297.011 187.267 294.468 184.13 294.468C180.993 294.468 178.45 297.011 178.45 300.148C178.45 303.285 180.993 305.828 184.13 305.828Z" fill="white"/>
<path d="M192.346 340.871C192.346 342.443 191.078 343.711 189.506 343.711H178.805C177.233 343.711 175.965 342.443 175.965 340.871C175.965 339.299 177.233 338.031 178.805 338.031H189.506C191.078 337.98 192.346 339.248 192.346 340.871Z" fill="#ED8B3B"/>
<path d="M465.188 355.832H342.308V281.992C342.308 279.811 344.083 278.036 346.264 278.036H461.283C463.413 278.036 465.138 279.761 465.138 281.891V355.832H465.188Z" fill="#BBBFC2"/>
<path d="M465.493 355.984H342.663V281.941C342.663 279.71 344.489 277.884 346.72 277.884H461.435C463.667 277.884 465.493 279.71 465.493 281.941V355.984Z" stroke="#444E59" stroke-width="4" stroke-miterlimit="10" stroke-linecap="round" stroke-linejoin="round"/>
<path opacity="0.71" d="M458.761 349.455V284.44H349.472V349.455H458.761Z" fill="#5D5D5D"/>
<path opacity="0.32" d="M376.185 337.068H366.752C366.194 337.068 365.738 336.611 365.738 336.053V303.748C365.738 303.19 366.194 302.734 366.752 302.734H376.185C376.743 302.734 377.199 303.19 377.199 303.748V336.104C377.199 336.611 376.743 337.068 376.185 337.068Z" fill="#848484"/>
<path opacity="0.32" d="M444.294 343.61H389.827C388.711 343.61 387.798 342.697 387.798 341.581V299.945C387.798 298.829 388.711 297.916 389.827 297.916H444.294C445.41 297.916 446.323 298.829 446.323 299.945V341.581C446.323 342.697 445.46 343.61 444.294 343.61Z" fill="#848484"/>
<path d="M458.665 349.148V284.69H349.478V349.148H458.665Z" stroke="#444E59" stroke-width="4" stroke-miterlimit="10" stroke-linecap="round" stroke-linejoin="round"/>
<path d="M478.881 355.984H329.224V360.751C329.224 362.982 331.049 364.808 333.281 364.808H474.824C477.055 364.808 478.881 362.982 478.881 360.751V355.984Z" fill="white"/>
<path opacity="0.8" d="M334.954 365.112H473.201C475.99 365.112 478.272 362.982 478.78 360.092H329.325C329.832 362.982 332.165 365.112 334.954 365.112Z" fill="#BBBFC2"/>
<path d="M478.881 355.984H329.224V360.751C329.224 362.982 331.049 364.808 333.281 364.808H474.824C477.055 364.808 478.881 362.982 478.881 360.751V355.984Z" stroke="#444E59" stroke-width="4" stroke-miterlimit="10" stroke-linecap="round" stroke-linejoin="round"/>
<path d="M374.461 300.148H363.05V311.558H374.461V300.148Z" fill="#F09F54"/>
<path d="M374.663 300.249H363.253V311.66H374.663V300.249Z" stroke="#444E59" stroke-width="4" stroke-miterlimit="10" stroke-linecap="round" stroke-linejoin="round"/>
<path d="M374.663 300.249H363.253V311.66H374.663V300.249Z" stroke="#444E59" stroke-width="4" stroke-miterlimit="10" stroke-linecap="round" stroke-linejoin="round"/>
<path d="M374.461 311.558H363.05V322.969H374.461V311.558Z" fill="#8D91DB"/>
<path d="M374.663 311.71H363.253V323.121H374.663V311.71Z" stroke="#444E59" stroke-width="4" stroke-miterlimit="10" stroke-linecap="round" stroke-linejoin="round"/>
<path d="M374.461 322.969H363.05V334.38H374.461V322.969Z" fill="#6567C3"/>
<path d="M374.663 323.121H363.253V334.532H374.663V323.121Z" stroke="#444E59" stroke-width="4" stroke-miterlimit="10" stroke-linecap="round" stroke-linejoin="round"/>
<path d="M440.998 340.11H386.48C385.364 340.11 384.451 339.198 384.451 338.082V296.445C384.451 295.33 385.364 294.417 386.48 294.417H440.998C442.113 294.417 443.026 295.33 443.026 296.445V338.082C443.026 339.248 442.113 340.11 440.998 340.11Z" fill="white"/>
<path d="M440.998 340.11H386.48C385.364 340.11 384.451 339.198 384.451 338.082V296.445C384.451 295.33 385.364 294.417 386.48 294.417H440.998C442.113 294.417 443.026 295.33 443.026 296.445V338.082C443.026 339.248 442.113 340.11 440.998 340.11Z" stroke="#444E59" stroke-width="4" stroke-miterlimit="10" stroke-linecap="round" stroke-linejoin="round"/>
<g opacity="0.3">
<g opacity="0.3">
<path opacity="0.3" d="M425.885 328.091V328.852H425.124" stroke="#444E59" stroke-width="2" stroke-linejoin="round"/>
<path opacity="0.3" d="M424.16 328.852H402.911" stroke="#444E59" stroke-width="2" stroke-linejoin="round" stroke-dasharray="2.86 2.86"/>
<path opacity="0.3" d="M402.404 328.852H401.643V328.091" stroke="#444E59" stroke-width="2" stroke-linejoin="round"/>
<path opacity="0.3" d="M401.643 327.026V307.248" stroke="#444E59" stroke-width="2" stroke-linejoin="round" stroke-dasharray="3 3"/>
<path opacity="0.3" d="M401.643 306.74V305.98H402.404" stroke="#444E59" stroke-width="2" stroke-linejoin="round"/>
<path opacity="0.3" d="M403.368 305.98H424.617" stroke="#444E59" stroke-width="2" stroke-linejoin="round" stroke-dasharray="2.86 2.86"/>
<path opacity="0.3" d="M425.124 305.98H425.885V306.74" stroke="#444E59" stroke-width="2" stroke-linejoin="round"/>
<path opacity="0.3" d="M425.885 307.755V327.584" stroke="#444E59" stroke-width="2" stroke-linejoin="round" stroke-dasharray="3 3"/>
</g>
</g>
<path d="M403.571 304.205H399.97V307.805H403.571V304.205Z" fill="white"/>
<path d="M403.368 304.053H399.818V307.603H403.368V304.053Z" stroke="#444E59" stroke-miterlimit="10" stroke-linejoin="round"/>
<path d="M403.571 327.026H399.97V330.627H403.571V327.026Z" fill="white"/>
<path d="M403.368 326.925H399.818V330.475H403.368V326.925Z" stroke="#444E59" stroke-miterlimit="10" stroke-linejoin="round"/>
<path d="M427.71 304.205H424.11V307.805H427.71V304.205Z" fill="white"/>
<path d="M427.66 304.053H424.11V307.603H427.66V304.053Z" stroke="#444E59" stroke-miterlimit="10" stroke-linejoin="round"/>
<path d="M427.71 327.027H424.11V330.627H427.71V327.027Z" fill="white"/>
<path d="M427.66 326.925H424.11V330.475H427.66V326.925Z" stroke="#444E59" stroke-miterlimit="10" stroke-linejoin="round"/>
<path d="M368.984 317.593L372.584 325.302L376.083 327.128L378.518 324.693L376.743 321.143L368.984 317.593Z" fill="white"/>
<path d="M368.984 317.593L372.584 325.302L376.083 327.128L378.518 324.693L376.743 321.143L368.984 317.593Z" stroke="#444E59" stroke-miterlimit="10" stroke-linejoin="round"/>
<path d="M373.548 322.918C374.08 322.918 374.511 322.487 374.511 321.955C374.511 321.423 374.08 320.991 373.548 320.991C373.016 320.991 372.584 321.423 372.584 321.955C372.584 322.487 373.016 322.918 373.548 322.918Z" fill="#444E59"/>
<path d="M368.984 317.593L372.99 321.6" stroke="#444E59" stroke-miterlimit="10" stroke-linecap="round" stroke-linejoin="round"/>
<path d="M378.533 324.653L376.094 327.092L377.852 328.849L380.29 326.41L378.533 324.653Z" fill="white"/>
<path d="M378.533 324.653L376.094 327.092L377.852 328.849L380.29 326.41L378.533 324.653Z" stroke="#444E59" stroke-miterlimit="10" stroke-linejoin="round"/>
</svg>
